<svg width="384" height="377" xmlns="http://www.w3.org/2000/svg">

 <g id="imagebot_2">
  <path fill="#ffffff" id="imagebot_3" d="M 377 352 C 377 365.8 365.8 377 352 377 S 327 365.8 327 352 S 338.2 327 352 327 S 377 338.2 377 352 z"/>
  <path fill="#ffffff" id="imagebot_4" d="M 89 352 C 89 365.8 77.80000000000001 377 64 377 S 39 365.8 39 352 S 50.2 327 64 327 S 89 338.2 89 352 z"/>
  <path fill="#ffffff" id="imagebot_5" d="M 63.900000000000006 32 L 52.8 0 L 0 0 L 0 17 L 41.7 17 L 99.19999999999999 230.3 C 66.80000000000001 241.60000000000002 39.3 268.2 33.900000000000006 303.4 C 32 315.1 32 320 32 320 L 384 320 L 384 303.3 L 51.3 303.3 C 56 271.7 90.1 245.2 125.4 240.8 S 368.7 206.60000000000002 368.7 206.60000000000002 L 384 32 L 63.900000000000006 32 z M 352 192 L 117 225.3 C 116.1 225.5 115.19999999999999 225.7 114.30000000000001 225.89999999999998 L 69.6 48.599999999999994 L 367.3 48.599999999999994 L 352 192 z"/>
  <title>imagebot_2</title>
 </g>
</svg>